<svg width="19" height="26" viewBox="0 0 19 26" fill="none" xmlns="http://www.w3.org/2000/svg">
<path d="M8.82312 2.85701C10.9173 -0.952334 16.2513 -0.952336 18.3454 2.85701C18.3454 2.85701 18.5413 3.18178 18.643 3.40216C19.5126 5.28592 18.6346 6.57228 17.7054 8.642C17.2306 9.69949 16.5752 10.6815 15.8551 11.6767C15.6652 11.9392 15.4692 12.2047 15.271 12.4731C14.7315 13.2039 14.1764 13.9555 13.6877 14.7245C12.322 16.8737 11.3701 19.3112 12.1909 22.5591C12.592 24.1462 13.2734 25.245 14.0259 26H5.47786C1.28874 26 -1.34553 21.3539 0.716707 17.6026L8.82312 2.85701Z" fill="#6A4CFF"/>
</svg>
